<?xml version="1.0" standalone="no"?>
<!DOCTYPE svg PUBLIC "-//W3C//DTD SVG 20010904//EN"
 "http://www.w3.org/TR/2001/REC-SVG-20010904/DTD/svg10.dtd">
<svg version="1.0" xmlns="http://www.w3.org/2000/svg"
 width="712.000000pt" height="712.000000pt" viewBox="0 0 712.000000 712.000000"
 preserveAspectRatio="xMidYMid meet">
<metadata>
Created by potrace 1.11, written by Peter Selinger 2001-2013
</metadata>
<g transform="translate(0.000000,712.000000) scale(0.100000,-0.100000)"
fill="#000000" stroke="none">
<path d="M3769 7063 c-106 -120 -220 -326 -282 -511 l-34 -100 -37 77 c-114
230 -316 407 -565 492 -113 39 -186 51 -331 55 -165 3 -219 -4 -460 -64 -91
-23 -178 -44 -195 -46 -16 -3 -55 -10 -85 -16 -179 -35 -390 -54 -586 -54
l-151 1 14 -51 c8 -28 21 -65 29 -83 8 -17 14 -34 14 -38 0 -22 111 -235 166
-317 202 -303 480 -468 794 -471 148 -2 239 14 425 74 83 26 290 84 341 94
153 33 223 45 281 51 76 8 225 9 263 2 l24 -5 1 -176 c0 -170 -1 -177 -20
-178 -11 0 -27 -2 -35 -3 -8 -2 -47 -6 -85 -10 -39 -3 -82 -9 -98 -11 -15 -3
-55 -10 -90 -15 -194 -34 -459 -119 -657 -211 -291 -135 -541 -310 -765 -534
-195 -195 -311 -342 -440 -560 -46 -78 -165 -316 -165 -330 0 -4 -7 -21 -15
-38 -59 -129 -148 -464 -169 -637 -3 -25 -9 -74 -13 -110 -10 -81 -10 -466 0
-537 4 -29 10 -77 13 -105 3 -29 7 -60 9 -68 2 -8 7 -31 10 -50 3 -19 15 -73
26 -120 11 -47 23 -96 25 -108 8 -41 74 -233 110 -320 99 -241 259 -506 426
-706 l24 -29 44 28 c66 42 143 74 242 100 77 20 108 23 221 21 73 -2 143 -6
156 -9 87 -23 145 -43 206 -74 257 -128 426 -351 479 -631 13 -70 15 -259 3
-279 -7 -10 72 -36 143 -48 19 -3 42 -8 50 -10 43 -12 207 -35 305 -43 162
-12 478 -6 570 12 11 2 45 7 75 11 30 3 71 11 90 15 19 5 51 12 70 15 33 5 91
19 132 31 14 4 17 13 13 42 -59 436 244 857 690 958 41 10 292 11 337 2 57
-12 190 -58 226 -79 17 -10 47 -28 66 -39 l34 -21 66 83 c234 292 413 655 505
1027 16 64 32 136 36 161 4 25 9 54 11 65 9 47 24 169 29 231 5 67 6 347 0
409 -7 85 -19 185 -29 243 -3 17 -8 47 -11 65 -3 17 -15 70 -26 117 -11 47
-22 92 -24 100 -10 47 -71 223 -106 306 -101 243 -223 451 -388 664 -69 89
-298 325 -390 401 -339 280 -737 476 -1156 568 -115 25 -138 29 -205 37 -30 3
-57 7 -60 9 -6 4 -200 17 -290 20 -36 1 -64 6 -64 11 1 5 4 45 8 89 3 44 8 90
10 102 3 11 8 43 12 70 5 26 9 50 9 53 1 3 5 22 10 43 4 21 14 41 22 44 28 11
155 -39 255 -100 46 -28 78 -50 202 -137 11 -8 30 -23 41 -33 42 -40 145 -108
196 -132 247 -112 530 -54 809 168 105 83 250 231 250 255 0 6 -8 12 -17 12
-37 0 -202 63 -322 122 -68 34 -177 98 -243 142 -205 139 -306 185 -438 202
-204 25 -433 -38 -587 -163 -24 -19 -43 -30 -43 -26 0 16 103 188 148 248 25
33 77 92 115 132 l69 72 -44 27 c-71 46 -172 104 -179 104 -4 0 -26 -21 -50
-47z m-33 -2536 c10 -3 35 -8 55 -11 300 -44 630 -266 811 -546 100 -154 180
-378 192 -540 l3 -35 -1238 0 c-1233 0 -1238 0 -1234 20 2 11 9 50 15 87 66
416 362 785 755 944 96 38 221 72 302 80 32 4 59 8 61 9 6 5 258 -2 278 -8z"/>
<path d="M1818 1136 c-201 -59 -352 -218 -405 -427 -13 -52 -12 -197 2 -257
38 -161 159 -314 305 -386 74 -36 87 -40 165 -53 213 -36 436 57 559 232 78
110 109 207 109 340 1 379 -369 657 -735 551z"/>
<path d="M5005 1141 c-33 -10 -77 -25 -97 -34 -104 -45 -219 -154 -272 -261
-115 -226 -76 -485 99 -662 76 -77 132 -114 222 -146 76 -27 103 -31 193 -31
281 0 521 202 567 478 22 129 -6 280 -72 390 -40 66 -132 165 -174 186 -14 7
-33 19 -43 27 -9 7 -49 25 -90 39 -95 33 -243 39 -333 14z"/>
</g>
</svg>
